<?xml version="1.0" encoding="utf-8"?>
<!-- Generator: Adobe Illustrator 25.0.1, SVG Export Plug-In . SVG Version: 6.00 Build 0)  -->
<svg version="1.1" id="Layer_1" xmlns="http://www.w3.org/2000/svg" xmlns:xlink="http://www.w3.org/1999/xlink" x="0px" y="0px"
	 viewBox="0 0 154.7 60" style="enable-background:new 0 0 154.7 60;" xml:space="preserve">
<g>
	<path d="M32.9,35.6c1,0.1,1.5,0.5,1.5,1.4c0,0.9-0.4,1.3-1.1,1.3c-0.2,0-0.3,0-0.3-0.1c0-0.1,0-0.2,0-0.3c0-0.2,0.1-0.3,0.1-0.4
		c0-0.4-0.4-0.6-1.3-0.6c-5.4,5.8-9.8,10-13.1,12.8c-6.5,5.5-11.6,8.3-15.4,8.3c-0.9,0-1.6-0.3-2.2-0.8C0.3,56.7,0,55.9,0,55
		c0-2,1.7-4.5,5-7.5c3-2.7,6.7-5.2,11.1-7.4c4.5-2.3,8.7-3.8,12.5-4.5c2.7-2.7,6.9-7.7,12.4-14.7c6.1-7.8,9.6-13,10.5-15.4
		c0.4-1.1,0.6-2,0.6-2.6c0-0.7-0.3-1.1-1-1.1c-2.7,0-6.9,1.2-12.6,3.5c-5.8,2.3-11.1,5.5-15.9,9.6c-4.8,4.2-7.3,7.8-7.3,10.8
		c0,2.4,1.2,3.6,3.8,3.6c3.5,0,7.7-1.4,12.6-4.1c4.6-2.5,7.4-5,8.5-7.4c0.1-0.3,0.2-0.4,0.4-0.5c0.5,0,0.7,0.4,0.7,1.1
		c0,1.1-1.1,2.7-3.3,4.7c-2.1,1.9-4.9,3.7-8.5,5.3c-3.8,1.7-7,2.6-9.6,2.6c-1.9,0-3.5-0.7-4.8-2c-1.3-1.4-1.9-3-1.9-4.9
		c0-3.7,2.4-7.6,7.2-11.6c4.1-3.4,9.3-6.4,15.4-8.9C41.6,1.2,46.3,0,49.8,0c3,0,4.5,1.2,4.5,3.5C54.3,8.1,47.2,18.8,32.9,35.6z
		 M27.3,37.1c-3.6,0.9-7.7,2.7-12.2,5.3c-4.6,2.6-8.2,5.3-10.7,7.9c-2.1,2.2-3.2,3.8-3.2,4.9c0,1,0.6,1.5,1.8,1.5
		c1,0,2.1-0.3,3.5-0.9c1.8-0.9,5.4-3.8,10.6-8.6C20.8,43.7,24.3,40.3,27.3,37.1z"/>
	<path d="M85.3,23.5c-6.5,5.6-10.7,9.1-12.7,10.7c-6.6,5-11.2,7.6-14,7.6c-2.9,0-4.3-1.7-4.3-5c0-3.4,2-7.3,6-11.8
		c1.8-2,5.1-5.1,9.9-9.4c3.7-3.3,6.5-5.9,8.5-7.8c2.4-2.3,3.5-3.7,3.5-4.2c0-0.2-0.1-0.3-0.4-0.3c-1.2,0-3.9,1-8.1,2.9
		c-4.2,1.9-8.5,4.7-12.8,8.4c-4.4,3.7-6.6,6-6.6,7.1c0,0.4,0.3,0.6,0.8,0.6c1.2,0,2.9-0.5,5-1.5l3-1.5c0.2,0.1,0.2,0.1,0.2,0.3
		c0,0.7-1.2,1.6-3.7,2.8c-2.3,1.1-3.9,1.6-4.9,1.6c-1.6,0-2.4-0.7-2.4-2.1c0-2,2.2-4.8,6.5-8.5c3.1-2.6,6.7-5.1,10.9-7.3
		c5.1-2.8,9.1-4.1,12.2-4.1c1.7,0,2.5,0.7,2.5,2.2c0,1.8-2.4,5.1-7.3,9.8L63.5,26.6c-4.9,5-7.3,8.8-7.3,11.3c0,1.3,0.7,2,2,2
		c2.7,0,7.7-2.8,15.1-8.5c4.4-3.4,9.1-7.4,14-11.9c2.1-1.9,6.3-6.1,12.6-12.6c1.9-1.9,3-2.9,3.4-2.9c0.4,0,0.8,0.1,1.2,0.4
		c0.4,0.3,0.6,0.6,0.6,0.9c0,0.4-0.2,0.8-0.6,1.3L69.8,45.7L66,49.5c-1.8,1.8-2.9,3.1-3,3.7c0.2-0.1,0.6-0.3,1.2-0.7
		c0.5-0.4,0.8-0.6,1-0.6c0.2,0,0.3,0.1,0.4,0.2c0,0.3-0.9,1.2-2.7,2.8c-1.7,1.5-2.9,2.7-3.7,3.7c-0.7,0.9-1.3,1.3-1.8,1.3
		c-0.4,0-0.8-0.2-1.2-0.6c-0.4-0.4-0.6-0.8-0.6-1.2c0-0.7,0.6-1.7,1.8-3L77.9,32L85.3,23.5z"/>
	<path d="M126.4,21.6c13.5-13.7,22.2-20.6,26-20.6c1.6,0,2.4,0.8,2.4,2.3c0,1.4-0.6,2.9-1.7,4.6c-0.8,1.2-6,6.7-15.3,16.6
		c-7.8,8.7-11.7,13.7-11.7,15.2c0,0.5,0.4,0.8,1.1,0.9s1.1,0.2,1.1,0.3c0,0.5-0.6,0.8-1.8,0.8c-1.7,0-2.5-0.8-2.5-2.4
		c0-2.9,3.6-8.5,10.9-16.6c2.6-2.8,7.4-7.8,14.5-15c2.4-2.4,3.6-4.1,3.6-5.1c0-0.4-0.2-0.6-0.6-0.6c-1.3,0-5.1,2.6-11.4,7.8
		c-5,4.2-8.7,7.5-11.2,9.9c-2.4,2.4-5.5,5.7-9.3,10c-6.9,7.8-10.5,11.7-10.7,11.7c-0.3,0-0.6-0.2-1-0.6c-0.4-0.4-0.6-0.7-0.6-1
		c0-0.8,4.2-6,12.5-15.8c8.3-9.8,12.5-15.5,12.5-17c0-0.4-0.2-0.6-0.6-0.6c-1,0-3.6,1.6-7.7,4.7c-3.8,2.9-8,6.5-12.6,10.9
		l-11.9,11.7l-4.2,4.5c-2.3,2.5-3.6,3.7-3.8,3.7c-0.3,0-0.7-0.2-1.2-0.5c-0.5-0.3-0.8-0.6-0.8-0.9c0-0.6,2.5-3.7,7.4-9.2l13.7-15.4
		c4.9-5.8,7.4-9.3,7.4-10.7c0-0.5-0.3-0.8-0.8-0.8c-1.4,0-4.3,1.8-8.8,5.4c-3.3,2.7-8.1,7.5-14.3,14.3c-0.4,0.4-0.7,0.6-0.9,0.6
		c-0.4,0-0.6-0.2-0.6-0.5c0-0.5,1.7-2.7,5.1-6.6c2.4-2.8,5.5-5.7,9.3-8.8c4.8-4,8.3-6,10.5-6c1.4,0,2.2,0.8,2.2,2.4
		c0,2.7-3.5,8.3-10.5,16.9C122,11,129.5,5.2,132.6,5.2c1.4,0,2.2,0.7,2.2,2.2C134.7,9.8,132,14.5,126.4,21.6z"/>
</g>
</svg>
